<svg xmlns="http://www.w3.org/2000/svg" xmlns:xlink="http://www.w3.org/1999/xlink" width="89" height="40" viewBox="0 0 89 40">
    <defs>
        <filter id="btrsreux2a" color-interpolation-filters="auto">
            <feColorMatrix in="SourceGraphic" values="0 0 0 0 1.000000 0 0 0 0 1.000000 0 0 0 0 1.000000 0 0 0 1.000000 0"/>
        </filter>
        <path id="6m1o6tfhsb" d="M0 0L8.635 0 8.635 5.785 0 5.785z"/>
    </defs>
    <g fill="none" fill-rule="evenodd">
        <g>
            <g filter="url(#btrsreux2a)" transform="translate(-93.000000, -376.000000) translate(93.000000, 376.000000)">
                <g>
                    <path fill="#141414" d="M1.673 1.754C.557 2.885 0 4.246 0 5.836c0 1.629.557 3.009 1.673 4.139 1.114 1.13 2.466 1.696 4.053 1.696h4.904c.68 0 1.257.25 1.73.747.49.499.736 1.083.736 1.753 0 .345-.061.672-.184.978-.123.306-.298.57-.525.79-.226.22-.491.393-.793.518-.302.125-.624.186-.964.186H0v3.335h10.63c1.588 0 2.939-.565 4.054-1.696 1.134-1.15 1.7-2.52 1.7-4.11 0-1.61-.566-2.98-1.7-4.111-1.115-1.13-2.466-1.696-4.054-1.696H5.726c-.7 0-1.285-.249-1.757-.747-.473-.498-.71-1.092-.71-1.782 0-.326.062-.642.185-.949.123-.306.298-.575.525-.805.226-.23.49-.406.793-.531.303-.125.624-.187.964-.187h10.659V.029H5.726C4.12.03 2.768.604 1.673 1.754M35.61 10.435c.774-1.13 1.162-2.386 1.162-3.766 0-1.82-.643-3.382-1.928-4.685C33.558.681 32.02.03 30.224.03h-6.549v3.334h6.548c.888 0 1.654.326 2.296.977.643.652.964 1.428.964 2.328 0 .92-.321 1.706-.964 2.357-.642.652-1.408.978-2.296.978l-6.548-.029v3.363h5.528l3.798 6.64h3.77l-4.053-7.158c1.171-.478 2.135-1.274 2.891-2.385M42.44 19.978L46.097 19.978 46.684 18.808 49.882 12.331 52.277 7.474 54.534 12.052 56.808 16.643 56.812 16.643 57.875 18.799 57.88 18.808 58.457 19.978 62.113 19.978 52.277.03zM83.094.03L72.943 13.175 72.96 13.175 67.702 19.977 71.897 19.977 77.12 13.175 87.261.03zM76.308 5.736L71.926 0 67.731 0 72.148 5.736z" transform="translate(0.788965, 9.600000)"/>
                    <g transform="translate(0.788965, 9.600000) translate(78.675997, 14.192185)">
                        <mask id="09n66xgxpc" fill="#fff">
                            <use xlink:href="#6m1o6tfhsb"/>
                        </mask>
                        <path fill="#141414" d="M0 0L4.468 5.785 8.635 5.785 4.178 0z" mask="url(#09n66xgxpc)"/>
                    </g>
                </g>
            </g>
        </g>
    </g>
</svg>
