<?xml version="1.0" encoding="UTF-8"?>
<!DOCTYPE svg PUBLIC "-//W3C//DTD SVG 1.1//EN" "http://www.w3.org/Graphics/SVG/1.1/DTD/svg11.dtd">
<!-- Creator: CorelDRAW X8 -->
<svg xmlns="http://www.w3.org/2000/svg" xml:space="preserve" width="1.10734in" height="0.512681in" version="1.1" style="shape-rendering:geometricPrecision; text-rendering:geometricPrecision; image-rendering:optimizeQuality; fill-rule:evenodd; clip-rule:evenodd"
viewBox="0 0 1135 526"
 xmlns:xlink="http://www.w3.org/1999/xlink">
 <defs>
  <style type="text/css">
   <![CDATA[
    .str0 {stroke:#FEFEFE;stroke-width:3.07557}
    .fil1 {fill:#FEFEFE}
    .fil0 {fill:#FEFEFE;fill-rule:nonzero}
   ]]>
  </style>
 </defs>
 <g id="Capa_x0020_1">
  <metadata id="CorelCorpID_0Corel-Layer"/>
  <g id="_1445660903760">
   <path class="fil0 str0" d="M579 385l11 0c4,0 7,0 10,1 2,1 4,3 5,5 1,3 2,5 2,8 0,2 -1,5 -2,7 -1,2 -3,4 -5,5 3,1 5,2 7,4 1,1 2,3 3,5 1,2 1,4 1,6 0,5 -1,9 -4,12 -4,3 -8,5 -13,5l-15 0 0 -58zm5 5l0 19 3 0c4,0 7,0 9,-1 1,-1 3,-2 4,-4 1,-1 1,-3 1,-5 0,-3 0,-5 -2,-6 -2,-2 -5,-3 -9,-3l-6 0zm0 25l0 22 7 0c4,0 7,0 9,-1 2,-1 3,-2 4,-4 1,-2 2,-4 2,-6 0,-2 -1,-5 -3,-7 -1,-1 -3,-3 -6,-4 -2,0 -5,0 -10,0l-3 0zm77 -15l0 43 -5 0 0 -8c-2,3 -4,5 -7,7 -3,1 -6,2 -9,2 -6,0 -10,-2 -14,-7 -4,-4 -6,-10 -6,-16 0,-6 2,-11 6,-16 4,-4 9,-6 14,-6 4,0 7,0 9,2 3,1 5,4 7,7l0 -8 5 0zm-20 4c-3,0 -6,1 -8,2 -3,2 -5,4 -6,7 -1,2 -2,5 -2,8 0,3 1,6 2,9 1,3 3,5 6,6 2,2 5,3 8,3 3,0 5,-1 8,-3 2,-1 4,-3 6,-6 1,-2 2,-5 2,-9 0,-4 -2,-9 -5,-12 -3,-3 -7,-5 -11,-5zm34 -22c1,0 2,1 3,2 1,0 1,2 1,3 0,1 0,2 -1,3 -1,1 -2,1 -3,1 -1,0 -2,0 -3,-1 -1,-1 -1,-2 -1,-3 0,-1 0,-3 1,-3 1,-1 2,-2 3,-2zm-2 18l5 0 0 49c0,4 -1,6 -2,8 -1,2 -3,2 -5,2 -2,0 -4,0 -6,-1l0 -5c1,1 3,1 4,1 1,0 2,0 3,-2 0,0 1,-2 1,-4l0 -48zm56 0l0 43 -5 0 0 -8c-3,3 -5,5 -8,7 -2,1 -5,2 -9,2 -5,0 -10,-2 -14,-7 -4,-4 -6,-10 -6,-16 0,-6 2,-11 6,-16 4,-4 9,-6 15,-6 3,0 6,0 8,2 3,1 6,4 8,7l0 -8 5 0zm-21 4c-3,0 -6,1 -8,2 -2,2 -4,4 -6,7 -1,2 -2,5 -2,8 0,3 1,6 2,9 2,3 4,5 6,6 2,2 5,3 8,3 3,0 5,-1 8,-3 2,-1 4,-3 6,-6 1,-2 2,-5 2,-9 0,-4 -2,-9 -5,-12 -3,-3 -7,-5 -11,-5zm105 -9l-4 4c-3,-3 -6,-6 -9,-8 -3,-1 -7,-2 -11,-2 -4,0 -8,1 -12,3 -4,2 -6,5 -8,9 -3,4 -4,8 -4,13 0,7 3,13 7,18 5,4 11,7 17,7 8,0 14,-4 20,-10l4 4c-3,3 -6,6 -10,8 -4,2 -9,3 -14,3 -9,0 -17,-3 -22,-10 -5,-6 -7,-13 -7,-21 0,-8 2,-15 8,-21 6,-6 13,-9 21,-9 5,0 10,1 14,3 4,3 7,6 10,9zm50 5l0 43 -5 0 0 -8c-2,3 -5,5 -7,7 -3,1 -6,2 -9,2 -6,0 -11,-2 -15,-7 -4,-4 -6,-10 -6,-16 0,-6 2,-11 6,-16 4,-4 9,-6 15,-6 3,0 6,0 9,2 3,1 5,4 7,7l0 -8 5 0zm-21 4c-3,0 -5,1 -8,2 -2,2 -4,4 -5,7 -2,2 -3,5 -3,8 0,3 1,6 3,9 1,3 3,5 5,6 3,2 5,3 8,3 3,0 6,-1 8,-3 3,-1 5,-3 6,-6 2,-2 2,-5 2,-9 0,-4 -1,-9 -4,-12 -3,-3 -7,-5 -12,-5zm32 -21l5 0 0 60 -5 0 0 -60zm18 -1c1,0 2,1 3,2 1,0 1,2 1,3 0,1 0,2 -1,3 -1,1 -2,1 -3,1 -1,0 -2,0 -3,-1 -1,-1 -1,-2 -1,-3 0,-1 0,-3 1,-3 1,-1 2,-2 3,-2zm-3 18l5 0 0 43 -5 0 0 -43zm33 -17l0 6c-2,-1 -4,-2 -5,-2 -1,0 -2,1 -3,1 0,0 -1,1 -1,2 0,0 0,2 0,4l0 6 8 0 0 5 -8 0 0 38 -5 0 0 -38 -6 0 0 -5 6 0 0 -7c0,-3 0,-5 0,-6 1,-2 2,-3 3,-4 1,0 3,-1 5,-1 1,0 3,1 6,1zm26 16c6,0 11,2 15,7 4,4 6,9 6,15 0,6 -2,12 -6,16 -4,5 -9,7 -15,7 -6,0 -11,-2 -15,-7 -4,-4 -6,-10 -6,-16 0,-6 2,-11 6,-15 4,-5 9,-7 15,-7zm0 5c-4,0 -8,2 -11,5 -3,4 -5,8 -5,13 0,3 1,5 2,8 2,3 4,5 6,6 2,2 5,3 8,3 3,0 5,-1 8,-3 2,-1 4,-3 6,-6 1,-3 2,-5 2,-8 0,-5 -2,-9 -5,-13 -3,-3 -7,-5 -11,-5zm29 -4l5 0 0 6c1,-2 3,-4 5,-5 2,-2 3,-2 5,-2 2,0 3,0 5,1l-3 5c-1,-1 -2,-1 -2,-1 -2,0 -4,1 -5,2 -2,2 -3,4 -4,7 -1,3 -1,8 -1,15l0 15 -5 0 0 -43zm24 0l6 0 0 7c2,-2 4,-5 6,-6 3,-2 6,-2 9,-2 3,0 5,1 8,2 2,2 4,4 5,7 1,3 2,7 2,13l0 22 -6 0 0 -21c0,-5 0,-8 0,-10 -1,-2 -2,-5 -4,-6 -1,-1 -4,-2 -6,-2 -4,0 -6,1 -9,3 -2,2 -4,5 -5,8 0,2 0,6 0,12l0 16 -6 0 0 -43zm48 -18c2,0 3,1 3,2 1,0 2,2 2,3 0,1 -1,2 -2,3 0,1 -1,1 -3,1 -1,0 -2,0 -3,-1 0,-1 -1,-2 -1,-3 0,-1 1,-3 1,-3 1,-1 2,-2 3,-2zm-2 18l5 0 0 43 -5 0 0 -43zm56 0l0 43 -5 0 0 -8c-2,3 -5,5 -8,7 -2,1 -5,2 -8,2 -6,0 -11,-2 -15,-7 -4,-4 -6,-10 -6,-16 0,-6 2,-11 6,-16 4,-4 9,-6 15,-6 3,0 6,0 9,2 2,1 5,4 7,7l0 -8 5 0zm-21 4c-3,0 -5,1 -8,2 -2,2 -4,4 -6,7 -1,2 -2,5 -2,8 0,3 1,6 2,9 2,3 4,5 6,6 3,2 5,3 8,3 3,0 6,-1 8,-3 3,-1 5,-3 6,-6 1,-2 2,-5 2,-9 0,-4 -2,-9 -5,-12 -3,-3 -6,-5 -11,-5z"/>
   <path class="fil0 str0" d="M625 177c0,34 2,56 5,65 4,10 11,17 21,19l0 5c-8,0 -16,0 -24,-1 -8,0 -19,0 -33,0 -12,0 -23,0 -30,0 -8,1 -15,1 -22,1l0 -5c9,-2 16,-8 20,-18 3,-9 5,-31 5,-66l0 -130c0,-9 -2,-15 -5,-20 -3,-5 -8,-8 -16,-10l0 -6c8,1 16,1 24,2 8,0 16,0 24,0 9,0 18,0 27,0 8,-1 17,-1 25,-2l0 6c-7,2 -13,5 -16,10 -3,4 -5,11 -5,20l0 130zm35 89l0 -5c10,-2 16,-8 19,-17 4,-10 5,-32 5,-67l0 -129c0,-9 -1,-16 -4,-20 -3,-5 -8,-8 -16,-10l0 -6c1,0 2,0 2,0 24,1 42,1 53,1l142 0 19 65 -5 2c-15,-19 -31,-32 -49,-41 -18,-8 -39,-13 -63,-13 -6,0 -10,0 -12,0 -3,0 -6,1 -8,1l0 97c4,1 8,1 11,1 4,0 7,0 11,0 20,0 36,-4 49,-11 13,-8 22,-18 25,-31l5 0 0 97 -5 0c-4,-14 -12,-24 -25,-32 -12,-7 -29,-11 -50,-11 -5,0 -10,1 -13,1 -3,0 -5,0 -8,0l0 35c0,36 3,58 8,66 5,8 15,13 32,13 20,0 39,-6 57,-18 17,-12 34,-29 49,-53l6 2 -21 82 -141 0c-2,0 -6,0 -11,0 -5,0 -9,0 -12,0 -9,0 -17,0 -26,0 -8,0 -16,1 -24,1zm238 0l0 -5c10,-2 16,-8 20,-17 3,-10 5,-32 5,-67l0 -129c0,-9 -2,-16 -5,-20 -3,-5 -8,-8 -16,-10l0 -6c1,0 2,0 2,0 24,1 42,1 53,1l142 0 19 65 -5 2c-14,-19 -31,-32 -49,-41 -18,-8 -39,-13 -63,-13 -5,0 -10,0 -12,0 -3,0 -5,1 -8,1l0 97c4,1 8,1 11,1 4,0 7,0 11,0 20,0 37,-4 50,-11 12,-8 21,-18 24,-31l5 0 0 97 -5 0c-3,-14 -12,-24 -24,-32 -13,-7 -30,-11 -51,-11 -5,0 -10,1 -12,1 -3,0 -6,0 -9,0l0 35c0,36 3,58 8,66 5,8 16,13 32,13 20,0 39,-6 57,-18 17,-12 34,-29 50,-53l5 2 -21 82 -141 0c-2,0 -6,0 -11,0 -5,0 -9,0 -12,0 -9,0 -17,0 -26,0 -8,0 -16,1 -24,1z"/>
   <path class="fil0 str0" d="M578 316l6 0 0 41 -6 0 0 -41zm13 11l6 0 0 3c1,-1 2,-2 3,-3 2,0 3,-1 4,-1 2,0 4,1 6,3 1,2 2,5 2,8l0 20 -6 0 0 -13c0,-4 0,-6 0,-7 -1,-1 -1,-2 -2,-3 0,0 -1,-1 -2,-1 -1,0 -2,1 -3,2 -1,1 -2,2 -2,4 0,1 0,3 0,6l0 12 -6 0 0 -30zm41 4l-3 5c-2,-2 -3,-3 -4,-3 -1,0 -2,0 -2,1 0,0 -1,1 -1,1 0,0 1,1 1,1 0,0 1,1 2,2l2 1c2,1 4,3 5,4 0,2 1,4 1,6 0,2 -1,5 -2,6 -2,2 -4,3 -7,3 -3,0 -6,-2 -8,-5l4 -5c0,1 1,2 2,2 1,1 2,1 3,1 0,0 1,0 1,-1 1,0 1,-1 1,-1 0,-1 -1,-2 -2,-4l-2 -1c-4,-2 -6,-5 -6,-9 0,-2 0,-5 2,-6 1,-2 3,-3 6,-3 1,0 3,1 4,2 1,0 2,2 3,3zm6 -15l6 0 0 11 4 0 0 7 -4 0 0 23 -6 0 0 -23 -3 0 0 -7 3 0 0 -11zm15 -1c2,0 2,0 3,1 1,1 1,2 1,4 0,1 0,2 -1,3 -1,1 -1,1 -2,1 -2,0 -2,0 -3,-1 -1,-1 -1,-2 -1,-4 0,-1 0,-2 1,-3 1,-1 1,-1 2,-1zm-3 12l6 0 0 30 -6 0 0 -30zm13 -11l6 0 0 11 3 0 0 7 -3 0 0 23 -6 0 0 -23 -3 0 0 -7 3 0 0 -11zm12 11l6 0 0 15c0,2 1,4 1,5 0,2 1,2 1,3 1,1 2,1 3,1 1,0 2,0 3,-1 0,-1 1,-1 1,-3 0,0 0,-2 0,-5l0 -15 6 0 0 13c0,5 0,9 -1,11 0,2 -2,4 -3,5 -2,1 -4,2 -6,2 -3,0 -5,-1 -6,-2 -2,-2 -3,-4 -4,-6 0,-2 -1,-6 -1,-10l0 -13zm28 -11l6 0 0 11 4 0 0 7 -4 0 0 23 -6 0 0 -23 -3 0 0 -7 3 0 0 -11zm24 10c2,0 5,1 7,2 2,2 3,4 4,6 1,3 2,5 2,8 0,3 -1,6 -2,8 -1,3 -2,5 -4,6 -2,1 -4,2 -7,2 -3,0 -6,-2 -9,-5 -2,-3 -3,-6 -3,-11 0,-5 1,-8 4,-12 2,-2 5,-4 8,-4zm0 7c-2,0 -3,1 -4,3 -2,1 -2,4 -2,6 0,3 0,5 2,6 1,2 2,3 4,3 2,0 4,-1 5,-3 1,-1 2,-3 2,-6 0,-2 -1,-5 -2,-6 -1,-2 -3,-3 -5,-3zm184 -17l18 0 0 8 -12 0 0 7 12 0 0 8 -12 0 0 11 12 0 0 7 -18 0 0 -41zm22 -1l6 0 0 42 -6 0 0 -42zm36 29l-20 0c1,2 1,4 3,5 1,2 2,2 4,2 2,0 4,-1 6,-3l5 3c-1,3 -3,4 -4,5 -2,1 -4,2 -7,2 -3,0 -7,-1 -9,-4 -2,-3 -3,-7 -3,-12 0,-4 1,-8 3,-11 2,-3 5,-5 9,-5 4,0 7,2 9,5 3,3 4,7 4,12l0 1zm-6 -6c-1,-1 -1,-3 -3,-4 -1,-1 -2,-1 -4,-1 -1,0 -3,0 -4,2 -1,0 -2,2 -2,3l13 0zm34 -5l-5 4c-1,-2 -2,-2 -3,-3 -1,0 -2,-1 -3,-1 -2,0 -4,1 -5,3 -2,2 -3,4 -3,6 0,3 1,5 2,7 2,1 4,2 6,2 2,0 5,-1 6,-3l5 4c-3,4 -6,6 -11,6 -4,0 -8,-2 -10,-5 -2,-3 -4,-7 -4,-11 0,-3 1,-5 2,-8 1,-2 3,-4 5,-6 2,-1 4,-2 7,-2 2,0 4,1 6,2 2,1 4,3 5,5zm6 -17l6 0 0 11 4 0 0 7 -4 0 0 23 -6 0 0 -23 -3 0 0 -7 3 0 0 -11zm24 10c2,0 5,1 7,2 2,2 3,4 4,6 1,3 2,5 2,8 0,3 -1,6 -2,8 -1,3 -2,5 -4,6 -2,1 -4,2 -7,2 -3,0 -6,-2 -9,-5 -2,-3 -3,-6 -3,-11 0,-5 1,-8 4,-12 2,-2 5,-4 8,-4zm0 7c-2,0 -3,1 -4,3 -2,1 -2,4 -2,6 0,3 0,5 2,6 1,2 2,3 4,3 2,0 4,-1 5,-3 1,-1 2,-3 2,-6 0,-2 -1,-5 -2,-6 -1,-2 -3,-3 -5,-3zm16 -6l6 0 0 4c0,-2 1,-3 2,-4 1,0 2,-1 3,-1 1,0 1,1 2,1l-2 7c0,-1 -1,-1 -1,-1 -1,0 -2,1 -3,2 0,2 -1,4 -1,9l0 1 0 12 -6 0 0 -30zm34 0l6 0 0 30 -6 0 0 -3c-1,1 -2,2 -4,3 -1,1 -2,1 -3,1 -4,0 -6,-2 -9,-5 -2,-3 -3,-6 -3,-11 0,-4 1,-8 3,-11 3,-3 5,-5 8,-5 2,0 3,1 4,1 2,1 3,2 4,3l0 -3zm-6 6c-2,0 -4,1 -5,3 -1,1 -2,3 -2,6 0,3 1,5 2,7 1,1 3,2 5,2 1,0 3,-1 4,-2 2,-2 2,-4 2,-7 0,-3 0,-5 -2,-6 -1,-2 -3,-3 -4,-3zm17 -18l6 0 0 42 -6 0 0 -42zm-330 1l18 0 0 8 -12 0 0 7 12 0 0 8 -12 0 0 11 12 0 0 7 -18 0 0 -41zm37 15l-3 5c-2,-2 -3,-3 -4,-3 -1,0 -2,0 -2,1 0,0 -1,1 -1,1 0,0 1,1 1,1 0,0 1,1 2,2l2 1c2,1 4,3 5,4 0,2 1,4 1,6 0,2 -1,5 -2,6 -2,2 -4,3 -7,3 -3,0 -6,-2 -8,-5l4 -5c0,1 1,2 2,2 1,1 2,1 3,1 0,0 1,0 2,-1 0,0 0,-1 0,-1 0,-1 -1,-2 -2,-4l-2 -1c-4,-2 -6,-5 -6,-9 0,-2 1,-5 2,-6 1,-2 3,-3 6,-3 1,0 3,1 4,2 1,0 2,2 3,3zm6 -15l6 0 0 11 4 0 0 7 -4 0 0 23 -6 0 0 -23 -3 0 0 -7 3 0 0 -11zm31 11l6 0 0 30 -6 0 0 -3c-1,1 -3,2 -4,3 -1,1 -2,1 -4,1 -3,0 -5,-2 -8,-5 -2,-3 -3,-6 -3,-11 0,-4 1,-8 3,-11 3,-3 5,-5 8,-5 2,0 3,1 4,1 2,1 3,2 4,3l0 -3zm-6 6c-2,0 -4,1 -5,3 -1,1 -2,3 -2,6 0,3 1,5 2,7 1,1 3,2 5,2 1,0 3,-1 4,-2 1,-2 2,-4 2,-7 0,-3 -1,-5 -2,-6 -1,-2 -3,-3 -4,-3zm19 -17l6 0 0 11 3 0 0 7 -3 0 0 23 -6 0 0 -23 -3 0 0 -7 3 0 0 -11zm30 11l6 0 0 30 -6 0 0 -3c-1,1 -2,2 -3,3 -2,1 -3,1 -4,1 -3,0 -6,-2 -8,-5 -3,-3 -4,-6 -4,-11 0,-4 1,-8 4,-11 2,-3 4,-5 8,-5 1,0 2,1 4,1 1,1 2,2 3,3l0 -3zm-6 6c-2,0 -4,1 -5,3 -1,1 -2,3 -2,6 0,3 1,5 2,7 1,1 3,2 5,2 2,0 3,-1 4,-2 2,-2 2,-4 2,-7 0,-3 0,-5 -2,-6 -1,-2 -2,-3 -4,-3zm17 -18l6 0 0 42 -6 0 0 -42z"/>
   <path class="fil1 str0" d="M488 53l0 0 0 364c0,35 -15,52 -44,52l-101 0 34 -18c19,-10 27,-21 27,-35 -2,-22 -3,-28 -3,-20l-76 -245 61 -61 -26 -70 -28 0 0 -18 112 0c29,0 44,17 44,51z"/>
   <path class="fil1 str0" d="M190 20l0 0 0 0c-2,0 -10,4 -20,10 -11,6 -14,19 -11,36l112 282c0,5 2,14 3,26 1,12 -5,20 -18,26 -5,2 -12,2 -19,-1 -6,-3 -13,-1 -21,5 -9,11 -11,22 -7,31l77 89 -34 0 -85 -98c-9,-11 -12,-20 -12,-25 0,0 3,-5 8,-12 4,-7 12,-9 20,-6 10,7 20,7 27,0 7,-5 11,-15 9,-28l-101 -302c-7,-15 -7,-29 0,-39 6,-8 17,-12 35,-12l147 0 0 18 -110 0z"/>
   <path class="fil1 str0" d="M97 53l0 0 94 279c0,3 1,6 2,9 2,4 3,8 4,12 2,12 -4,18 -17,18 -11,-6 -20,-7 -26,-3 -6,4 -11,8 -14,12 -7,12 -8,24 -2,37l43 52 -135 0c-29,0 -44,-17 -44,-52l0 -364c0,-34 15,-51 44,-51l61 0c-14,15 -17,33 -10,51z"/>
  </g>
 </g>
</svg>
