<svg xmlns="http://www.w3.org/2000/svg" width="243.078" height="68.801" viewBox="0 0 243.078 68.801"><defs><style>.a{fill:#dc3e26;}.b{fill:#fff;}</style></defs><g transform="translate(-377.354 38.264)"><path class="a" d="M394.065,1.418V-21.065H377.354v2.98A31.3,31.3,0,0,0,398.136,11.4h0A31.3,31.3,0,0,0,418.92-18.085v-2.98H402.447V1.418Zm25.148-32.307v-7.375H377.5v7.375h16.563v9.825h8.383v-9.825Z" transform="translate(0)"/><path class="b" d="M142.018,65.286a1.967,1.967,0,0,1,.9-1.777,6.894,6.894,0,0,1,2.52-.894l1.747-.319v-.274c0-.834-.607-1.305-1.579-1.305a3.159,3.159,0,0,0-2.443,1.26L142.11,61a4.224,4.224,0,0,1,3.444-1.67c2.066,0,3.219,1.033,3.219,2.658V67.2h-1.5v-.866a2.894,2.894,0,0,1-2.519,1.108C143.173,67.442,142.018,66.744,142.018,65.286Zm3.843-1.5c-1.519.317-2.2.622-2.2,1.41,0,.562.5.913,1.337.913a1.945,1.945,0,0,0,2.186-1.9v-.7Zm-72.38,1.5a1.969,1.969,0,0,1,.894-1.777,6.918,6.918,0,0,1,2.522-.894l1.747-.319v-.274c0-.834-.609-1.305-1.579-1.305a3.165,3.165,0,0,0-2.445,1.26L73.572,61a4.224,4.224,0,0,1,3.444-1.67c2.066,0,3.221,1.033,3.221,2.658V67.2H78.732v-.866a2.885,2.885,0,0,1-2.519,1.108C74.634,67.442,73.48,66.744,73.48,65.286Zm3.841-1.5c-1.519.317-2.2.622-2.2,1.41,0,.562.5.913,1.335.913a1.946,1.946,0,0,0,2.188-1.9v-.7Zm56.636-.394a3.73,3.73,0,0,1,3.826-4.055,3.912,3.912,0,0,1,3.142,1.442l-1.063,1.033a2.71,2.71,0,0,0-2.079-1.063,1.837,1.837,0,0,0-1.581.776,3.458,3.458,0,0,0,0,3.732,1.855,1.855,0,0,0,1.581.746c.774,0,1.32-.3,2.154-1.215l1.108.928a3.8,3.8,0,0,1-3.277,1.715A3.7,3.7,0,0,1,133.957,63.389ZM126.167,66l.973-1.093a6.23,6.23,0,0,0,1.4.926,3.127,3.127,0,0,0,1.275.242c.866,0,1.5-.379,1.5-.988-.092-.727-.577-.834-1.989-1.136-2.141-.486-2.791-.958-2.791-2.278,0-1.337,1.183-2.338,3.08-2.338a4.609,4.609,0,0,1,3.219,1.155l-.913,1.108a3.4,3.4,0,0,0-2.336-.911c-.9,0-1.459.379-1.459.924a.561.561,0,0,0,.184.441,4.776,4.776,0,0,0,1.715.547c2.111.471,2.93,1.018,2.93,2.383,0,1.457-1.228,2.445-3.174,2.445A4.993,4.993,0,0,1,126.167,66ZM93.052,63.389a3.882,3.882,0,1,1,3.886,4.038A3.792,3.792,0,0,1,93.052,63.389Zm1.7,0c0,1.578.851,2.626,2.186,2.626,1.292,0,2.171-1.048,2.171-2.626,0-1.595-.851-2.642-2.171-2.642C95.6,60.747,94.752,61.795,94.752,63.389Zm-13.073,0a3.731,3.731,0,0,1,3.828-4.055,3.912,3.912,0,0,1,3.142,1.442L87.585,61.81a2.71,2.71,0,0,0-2.079-1.063,1.834,1.834,0,0,0-1.58.776,3.459,3.459,0,0,0,0,3.732,1.852,1.852,0,0,0,1.58.746c.774,0,1.32-.3,2.156-1.215l1.108.928a3.8,3.8,0,0,1-3.281,1.715A3.7,3.7,0,0,1,81.678,63.389Zm-24.535,0a3.882,3.882,0,1,1,3.888,4.038A3.793,3.793,0,0,1,57.143,63.389Zm1.7,0c0,1.578.851,2.626,2.188,2.626,1.29,0,2.169-1.048,2.169-2.626,0-1.595-.849-2.642-2.169-2.642C59.693,60.747,58.843,61.795,58.843,63.389ZM150.672,67.2V56.42h1.672V67.2Zm-27.375,0V59.577h1.67V67.2Zm-8.912,0V56.42h7.392v1.519h-5.6v3.2h5.208v1.518h-5.208V67.2Zm-7.154,0V62.492c0-1.108-.562-1.73-1.578-1.73a1.691,1.691,0,0,0-1.715,1.777V67.2h-1.67V59.577h1.548V60.5a2.7,2.7,0,0,1,2.351-1.168,2.5,2.5,0,0,1,2.735,2.642V67.2Zm-17.292,0V59.577h1.67V67.2Zm-21.835,0-2.611-7.623h1.76L68.09,62.2c.379,1.153.729,2.353,1.061,3.612.334-1.258.686-2.458,1.065-3.612l.834-2.627h1.732L70.154,67.2Zm-14.076,0V62.492c0-1.108-.562-1.73-1.578-1.73a1.692,1.692,0,0,0-1.715,1.777V67.2H49.065V59.577h1.548V60.5a2.7,2.7,0,0,1,2.355-1.168A2.5,2.5,0,0,1,55.7,61.977V67.2Zm-8.5,0V62.492c0-1.108-.563-1.73-1.579-1.73a1.692,1.692,0,0,0-1.715,1.777V67.2h-1.67V59.577h1.549V60.5a2.7,2.7,0,0,1,2.351-1.168A2.5,2.5,0,0,1,47.2,61.977V67.2Zm-8.972,0V56.42h1.79V67.2Zm59.579-8.654L97.2,56.377h1.835l-1.425,2.169Zm27.163-.287V56.542h1.67v1.717Zm-33.357,0V56.542h1.67v1.717Zm40.4-31.961c0-9.109,6.074-15.3,14.666-15.3,8.538,0,14.612,6.243,14.612,15.3,0,9-6.074,15.239-14.612,15.239C136.415,41.536,130.342,35.293,130.342,26.3Zm6.417,0c0,5.959,3.208,9.913,8.249,9.913,4.872,0,8.194-3.953,8.194-9.913,0-6.016-3.208-9.969-8.194-9.969C139.967,16.328,136.759,20.282,136.759,26.3ZM103.815,36.668V40.68H97.973V0h6.3V15.353c2.062-2.806,5.1-4.237,9.052-4.237,7.39,0,12.72,6.072,12.72,15.181S120.6,41.423,113.268,41.423C108.973,41.423,105.821,39.819,103.815,36.668Zm.171-10.371c0,6.016,3.381,9.683,8.021,9.683,4.584,0,7.621-3.782,7.621-9.683,0-5.957-2.98-9.8-7.621-9.8C107.252,16.5,103.986,20.282,103.986,26.3ZM181.678,40.68l-6.988-10.658L167.526,40.68h-6.817l10.425-15.07-9.509-13.693H168.5l6.246,9.223,6.13-9.223h6.817l-9.4,13.464,10.371,15.3Zm-97.056,0V22.46c0-3.841-1.66-6.076-5.1-6.076-3.612,0-5.788,2.7-5.788,6.419V40.68h-6.3V22.46c0-4.07-1.72-6.076-5.1-6.076-3.437,0-5.672,2.58-5.672,6.419V40.68h-6.3V11.917H56.2v3.322C57.979,12.433,60.73,11,64.454,11c3.839,0,6.588,1.66,8.136,4.41A9.823,9.823,0,0,1,81.3,11c6.188,0,9.625,3.781,9.625,9.567V40.68Zm-47.61,0V11.917h6.3V40.68Zm-24.522,0V5.871h6.819V40.678ZM37.012,5.786V0h6.3V5.786Zm-17.652,0V0h12.5V5.786ZM0,5.786V0H12.422V5.786Z" transform="translate(431.764 -36.905)"/></g></svg>